# xmcd
#
# Track frame offsets:
# 150
# 13618
# 22192
# 31648
# 40507
# 52373
# 68117
# 75647
# 90712
# 106814
# 117660
# 128276
# 144006
# 161308
# 173400
# 181455
# 193684
# 199929
# 209822
# 225592
#
# Disc length: 3131 seconds
#
#
# Revision: 5
# Processed by: cddbd v1.5.1PL2 Copyright (c) Steve Scherf et al.
# Submitted via: FreeRIP 2.944 
#
DISCID=050c3914
DTITLE=Various 20 Country Greats Vol. 08 - 20 Country Greats Vol. 08
DYEAR=1900
DGENRE=Country
TTITLE0=Freddy Fender - In The Still Of The Night
TTITLE1=Barbara Mandrell - I Gave My Love To A Railroad Man
TTITLE2=Mickey Gilley - Lotta Lovin'
TTITLE3=Bob Wills - It's Your Red Wagon
TTITLE4=Ann Murray - Last Thing On My Mind
TTITLE5=Bertie Higgins - Gone With The Wind
TTITLE6=Eddie Raven - I Really Had A Good Time At Your Party
TTITLE7=Barbara Fairchild - So Began The Blues
TTITLE8=Mel Tillis - Rose Of El Paso
TTITLE9=Kitty Wells - Searching
TTITLE10=Jackson Stonewall - My Hero And The Plastic Radio
TTITLE11=Ronnie McDowell - Unchained Melody
TTITLE12=Terri Gibbs - Somebody's Knockin'
TTITLE13=Tex Ritter - Goodbye My Little Cherokee
TTITLE14=Tammy Wynette - When The Grass Grows Over Me
TTITLE15=Don Williams - Some Broken Hearts Never Mend
TTITLE16=George Jones - Chicken Reel
TTITLE17=Gail Davies - Singin'  The Blues
TTITLE18=Kathy Mattea - Heart Of The Country
TTITLE19=Conway Twitty - Ever Since You Went Away
EXTD=
EXTT0=
EXTT1=
EXTT2=
EXTT3=
EXTT4=
EXTT5=
EXTT6=
EXTT7=
EXTT8=
EXTT9=
EXTT10=
EXTT11=
EXTT12=
EXTT13=
EXTT14=
EXTT15=
EXTT16=
EXTT17=
EXTT18=
EXTT19=
PLAYORDER=
